<?xml version="1.0" encoding="UTF-8"?><svg id="Layer_1" xmlns="http://www.w3.org/2000/svg" viewBox="0 0 219.39 116.36"><defs><style>.cls-1{fill:#3c3c3c;font-family:Poppins-Light, Poppins;font-size:7.69px;font-weight:300;}.cls-2{stroke-width:0px;}</style></defs><path class="cls-2" d="m82.31,50.1c.92.53,1.61,1.21,2.06,2.02v-2.59h2.38v14.48c0,1.29-.28,2.44-.83,3.45-.55,1.01-1.34,1.8-2.37,2.37-1.03.57-2.22.85-3.58.85-1.86,0-3.41-.44-4.65-1.32s-1.97-2.08-2.2-3.59h2.33c.26.86.79,1.56,1.6,2.08s1.78.79,2.92.79c1.29,0,2.35-.41,3.17-1.22.82-.81,1.23-1.95,1.23-3.41v-2.97c-.47.83-1.16,1.52-2.07,2.07s-1.98.83-3.21.83-2.4-.31-3.43-.93c-1.03-.62-1.83-1.49-2.42-2.61-.59-1.12-.88-2.4-.88-3.83s.29-2.72.88-3.81c.59-1.09,1.39-1.94,2.42-2.55,1.03-.6,2.17-.91,3.43-.91s2.3.27,3.22.8Zm1.41,3.7c-.43-.79-1.01-1.4-1.74-1.82-.73-.42-1.54-.63-2.42-.63s-1.68.21-2.4.62c-.72.41-1.3,1.02-1.73,1.81-.43.79-.65,1.72-.65,2.79s.21,2.03.65,2.83c.43.8,1.01,1.41,1.73,1.84.72.42,1.53.63,2.4.63s1.69-.21,2.42-.63c.73-.42,1.31-1.03,1.74-1.84.43-.8.65-1.74.65-2.81s-.22-2-.65-2.79Z"/><path class="cls-2" d="m93.3,63.03c-1.08-.6-1.92-1.46-2.53-2.57-.61-1.11-.92-2.4-.92-3.87s.31-2.73.94-3.84c.63-1.11,1.49-1.97,2.57-2.56,1.09-.59,2.3-.89,3.65-.89s2.56.3,3.65.89c1.09.6,1.94,1.44,2.57,2.55.63,1.1.94,2.39.94,3.85s-.32,2.75-.97,3.87c-.65,1.11-1.52,1.97-2.62,2.57-1.1.6-2.33.91-3.67.91s-2.53-.3-3.61-.91Zm5.99-1.76c.74-.4,1.34-.99,1.8-1.78.46-.79.69-1.76.69-2.9s-.22-2.1-.67-2.9c-.45-.79-1.03-1.38-1.76-1.77-.72-.39-1.51-.58-2.35-.58s-1.65.19-2.37.58-1.29.98-1.72,1.77c-.43.79-.65,1.76-.65,2.9s.21,2.13.63,2.92c.42.79.99,1.38,1.69,1.77s1.48.58,2.33.58,1.64-.2,2.38-.59Z"/><path class="cls-2" d="m118.1,55.22c.54.43.97.97,1.29,1.6.32.64.48,1.32.48,2.04,0,.91-.23,1.74-.7,2.47-.47.73-1.14,1.31-2.03,1.73-.89.42-1.94.63-3.14.63h-6.72v-18.02h6.46c1.22,0,2.27.2,3.13.61.86.41,1.51.95,1.94,1.64.43.69.65,1.47.65,2.33,0,1.07-.29,1.95-.87,2.65-.58.7-1.34,1.2-2.29,1.51.66.1,1.25.37,1.8.8Zm-8.47-1.76h3.96c1.1,0,1.96-.26,2.56-.78.6-.52.9-1.23.9-2.15s-.3-1.63-.9-2.15c-.6-.52-1.47-.78-2.61-.78h-3.9v5.84Zm6.9,7.47c.65-.55.98-1.32.98-2.3s-.35-1.79-1.03-2.37c-.69-.58-1.61-.87-2.77-.87h-4.09v6.36h4.16c1.17,0,2.09-.28,2.74-.83Z"/><path class="cls-2" d="m135.98,57.5h-11.33c.09,1.4.56,2.49,1.43,3.27.87.78,1.93,1.18,3.17,1.18,1.02,0,1.87-.24,2.55-.71.68-.47,1.16-1.11,1.43-1.9h2.53c-.38,1.36-1.14,2.47-2.28,3.32-1.14.85-2.55,1.28-4.24,1.28-1.35,0-2.55-.3-3.61-.91-1.06-.6-1.89-1.46-2.5-2.57-.6-1.11-.9-2.4-.9-3.87s.29-2.75.88-3.85c.59-1.1,1.41-1.95,2.47-2.55,1.06-.59,2.28-.89,3.66-.89s2.53.29,3.57.88,1.83,1.39,2.39,2.42c.56,1.03.84,2.19.84,3.48,0,.45-.03.92-.08,1.42Zm-2.95-4.23c-.4-.65-.94-1.14-1.62-1.47-.68-.34-1.43-.5-2.26-.5-1.19,0-2.2.38-3.04,1.14-.84.76-1.32,1.81-1.44,3.15h8.95c0-.9-.2-1.67-.59-2.31Z"/><path class="cls-2" d="m142.03,51.47v8.35c0,.69.15,1.18.44,1.46.29.28.8.43,1.53.43h1.73v1.99h-2.12c-1.31,0-2.29-.3-2.95-.91-.66-.6-.98-1.59-.98-2.97v-8.35h-1.84v-1.94h1.84v-3.57h2.35v3.57h3.7v1.94h-3.7Z"/><path class="cls-2" d="m151.44,51.47v8.35c0,.69.15,1.18.44,1.46.29.28.8.43,1.53.43h1.73v1.99h-2.12c-1.31,0-2.29-.3-2.95-.91-.66-.6-.98-1.59-.98-2.97v-8.35h-1.84v-1.94h1.84v-3.57h2.35v3.57h3.7v1.94h-3.7Z"/><path class="cls-2" d="m170.84,57.5h-11.33c.09,1.4.56,2.49,1.43,3.27.87.78,1.93,1.18,3.17,1.18,1.02,0,1.87-.24,2.55-.71.68-.47,1.16-1.11,1.43-1.9h2.53c-.38,1.36-1.14,2.47-2.28,3.32-1.14.85-2.55,1.28-4.24,1.28-1.35,0-2.55-.3-3.61-.91-1.06-.6-1.89-1.46-2.5-2.57-.6-1.11-.9-2.4-.9-3.87s.29-2.75.88-3.85c.59-1.1,1.41-1.95,2.47-2.55,1.06-.59,2.28-.89,3.66-.89s2.53.29,3.57.88,1.83,1.39,2.39,2.42c.56,1.03.84,2.19.84,3.48,0,.45-.03.92-.08,1.42Zm-2.95-4.23c-.4-.65-.94-1.14-1.62-1.47-.68-.34-1.43-.5-2.26-.5-1.19,0-2.2.38-3.04,1.14-.84.76-1.32,1.81-1.44,3.15h8.95c0-.9-.2-1.67-.59-2.31Z"/><path class="cls-2" d="m178.14,49.95c.77-.45,1.7-.67,2.81-.67v2.43h-.62c-2.64,0-3.96,1.43-3.96,4.29v7.71h-2.35v-14.17h2.35v2.3c.41-.81,1-1.44,1.77-1.89Z"/><path class="cls-2" d="m52.01,65.27c.32.53.51,1.14.51,1.8,0,1.94-1.58,3.52-3.52,3.52s-3.34-1.43-3.49-3.24l-6.76,2.16c1.11,4.65,5.27,8.1,10.26,8.1,5.83,0,10.55-4.72,10.55-10.55,0-1.4-.28-2.74-.78-3.96l-6.76,2.16Z"/><path class="cls-2" d="m57.4,47.13c0,1.73-1.4,3.13-3.13,3.13s-3.13-1.4-3.13-3.13,1.4-3.13,3.13-3.13c.13,0,.25.02.37.04-1.63-1.04-3.57-1.65-5.65-1.65-5.83,0-10.55,4.72-10.55,10.55,0,2.72,1.04,5.19,2.73,7.06,1.93,2.14,4.72,3.49,7.83,3.49s5.89-1.35,7.83-3.49c1.69-1.87,2.73-4.34,2.73-7.06,0-2.43-.83-4.67-2.21-6.45.04.21.07.42.07.64Zm-8.4,9.33c-1.94,0-3.52-1.58-3.52-3.52s1.58-3.52,3.52-3.52,3.52,1.58,3.52,3.52-1.58,3.52-3.52,3.52Z"/><path class="cls-2" d="m63.58,32.21c-3.24-2.01-7.49-1.02-9.51,2.22-1.4,2.26-1.34,5.02-.07,7.16.25.42.54.81.87,1.17,0,0,0,0,0,0,.36.36.47.9.29,1.39-.02.06-.04.13-.08.19-.01.02-.01.04-.02.06-.23.38-.62.59-1.03.62,0,0,0,0,0,0-.61.08-1.18.43-1.53.99,0,0,0,.02-.01.03-.6,1-.29,2.29.7,2.91.99.62,2.29.32,2.92-.66,0,0,.01-.02.02-.02.35-.56.4-1.22.21-1.8,0,0,0,0,0,0-.14-.33-.13-.71.02-1.06.02-.05.04-.1.07-.15.05-.07.11-.13.17-.19.35-.38.89-.53,1.38-.36,0,0,0,0,0,0,.36.11.73.18,1.11.23,2.59.32,5.25-.84,6.72-3.2,2.01-3.24,1.02-7.49-2.22-9.51Zm-.75,7.74c-1.01,1.62-3.13,2.12-4.75,1.11-1.62-1.01-2.12-3.13-1.11-4.75,1.01-1.62,3.13-2.12,4.75-1.11,1.62,1.01,2.12,3.13,1.11,4.75Z"/><text class="cls-1" transform="translate(71.84 80.86)"><tspan x="0" y="0">Revolutionize Your Workforce</tspan></text></svg>