<?xml version="1.0" encoding="UTF-8"?><svg id="Layer_1" xmlns="http://www.w3.org/2000/svg" xmlns:xlink="http://www.w3.org/1999/xlink" viewBox="0 0 149.79 122.86"><defs><style>.cls-1{fill:url(#linear-gradient);}.cls-1,.cls-2,.cls-3,.cls-4{stroke-width:0px;}.cls-5{fill:#ddd;font-family:Poppins-Light, Poppins;font-size:6.96px;font-weight:300;}.cls-2{fill:url(#linear-gradient-2);}.cls-3{fill:url(#linear-gradient-3);}.cls-4{fill:#fff;}</style><linearGradient id="linear-gradient" x1="95.82" y1="15.27" x2="48.54" y2="89.7" gradientUnits="userSpaceOnUse"><stop offset="0" stop-color="#f7f400"/><stop offset=".35" stop-color="#f0f"/><stop offset=".66" stop-color="#008fff"/><stop offset="1" stop-color="#00ffef"/></linearGradient><linearGradient id="linear-gradient-2" x1="88.84" y1="10.84" x2="41.56" y2="85.27" xlink:href="#linear-gradient"/><linearGradient id="linear-gradient-3" x1="89.8" y1="11.45" x2="42.52" y2="85.88" xlink:href="#linear-gradient"/></defs><path class="cls-4" d="m35.11,72.59c.83.48,1.45,1.09,1.85,1.82v-2.33h2.14v13.03c0,1.16-.25,2.2-.74,3.11-.5.91-1.21,1.62-2.13,2.13-.92.51-2,.77-3.22.77-1.68,0-3.07-.4-4.19-1.19s-1.78-1.87-1.98-3.23h2.1c.23.78.71,1.4,1.44,1.87s1.61.71,2.63.71c1.16,0,2.11-.36,2.85-1.09.74-.73,1.11-1.75,1.11-3.07v-2.68c-.42.74-1.04,1.37-1.86,1.86s-1.78.74-2.89.74-2.16-.28-3.08-.84c-.92-.56-1.65-1.34-2.18-2.35-.53-1.01-.79-2.16-.79-3.44s.26-2.45.79-3.43c.53-.99,1.25-1.75,2.18-2.29.92-.54,1.95-.81,3.08-.81s2.07.24,2.9.72Zm1.27,3.33c-.39-.71-.91-1.26-1.57-1.64-.66-.38-1.39-.57-2.18-.57s-1.51.19-2.16.56c-.65.37-1.17.92-1.56,1.63-.39.71-.58,1.55-.58,2.51s.19,1.83.58,2.55c.39.72.91,1.27,1.56,1.65.65.38,1.37.57,2.16.57s1.52-.19,2.18-.57c.66-.38,1.18-.93,1.57-1.65.39-.72.58-1.56.58-2.52s-.19-1.8-.58-2.51Z"/><path class="cls-4" d="m45,84.23c-.97-.54-1.73-1.32-2.28-2.32-.55-1-.83-2.16-.83-3.48s.28-2.46.85-3.46c.57-1,1.34-1.77,2.32-2.3.98-.54,2.07-.8,3.28-.8s2.3.27,3.28.8c.98.54,1.75,1.3,2.32,2.29.57.99.85,2.15.85,3.47s-.29,2.48-.87,3.48c-.58,1-1.37,1.77-2.36,2.32-.99.54-2.1.81-3.3.81s-2.28-.27-3.25-.81Zm5.39-1.58c.67-.36,1.21-.89,1.62-1.61.41-.71.62-1.58.62-2.61s-.2-1.89-.61-2.61c-.4-.71-.93-1.24-1.58-1.59-.65-.35-1.36-.52-2.12-.52s-1.49.17-2.13.52-1.16.88-1.55,1.59c-.39.71-.58,1.58-.58,2.61s.19,1.92.57,2.63c.38.71.89,1.24,1.52,1.59s1.33.52,2.1.52,1.47-.18,2.14-.54Z"/><path class="cls-4" d="m67.32,77.2c.49.39.88.87,1.16,1.44.29.57.43,1.19.43,1.84,0,.82-.21,1.56-.63,2.22-.42.66-1.03,1.18-1.83,1.56-.8.38-1.74.57-2.83.57h-6.05v-16.22h5.82c1.1,0,2.04.18,2.82.55.77.36,1.36.86,1.74,1.48.39.62.58,1.32.58,2.09,0,.96-.26,1.76-.78,2.39-.52.63-1.21,1.08-2.06,1.36.59.09,1.13.33,1.62.72Zm-7.62-1.58h3.56c.99,0,1.76-.23,2.3-.7.54-.47.81-1.11.81-1.93s-.27-1.47-.81-1.93c-.54-.47-1.33-.7-2.35-.7h-3.51v5.26Zm6.21,6.73c.59-.5.88-1.19.88-2.07s-.31-1.61-.93-2.13c-.62-.52-1.45-.78-2.49-.78h-3.68v5.73h3.75c1.05,0,1.88-.25,2.47-.74Z"/><path class="cls-4" d="m83.41,79.25h-10.19c.08,1.26.51,2.24,1.29,2.94.78.71,1.73,1.06,2.85,1.06.92,0,1.68-.21,2.29-.64.61-.43,1.04-1,1.29-1.71h2.28c-.34,1.23-1.02,2.22-2.05,2.99-1.02.77-2.3,1.15-3.82,1.15-1.21,0-2.29-.27-3.25-.81-.95-.54-1.7-1.32-2.25-2.32-.54-1-.81-2.16-.81-3.48s.26-2.47.79-3.47c.53-.99,1.27-1.76,2.22-2.29.95-.54,2.05-.8,3.29-.8s2.28.26,3.21.79,1.65,1.25,2.15,2.18c.5.92.76,1.97.76,3.13,0,.4-.02.83-.07,1.28Zm-2.65-3.81c-.36-.58-.84-1.02-1.45-1.33-.61-.3-1.29-.45-2.04-.45-1.07,0-1.98.34-2.73,1.02-.75.68-1.18,1.63-1.29,2.84h8.05c0-.81-.18-1.5-.54-2.08Z"/><path class="cls-4" d="m88.86,73.83v7.52c0,.62.13,1.06.4,1.31.26.26.72.38,1.37.38h1.56v1.79h-1.91c-1.18,0-2.06-.27-2.65-.81-.59-.54-.88-1.43-.88-2.68v-7.52h-1.65v-1.75h1.65v-3.21h2.12v3.21h3.33v1.75h-3.33Z"/><path class="cls-4" d="m97.33,73.83v7.52c0,.62.13,1.06.4,1.31.26.26.72.38,1.37.38h1.56v1.79h-1.91c-1.18,0-2.06-.27-2.65-.81-.59-.54-.88-1.43-.88-2.68v-7.52h-1.65v-1.75h1.65v-3.21h2.12v3.21h3.33v1.75h-3.33Z"/><path class="cls-4" d="m114.78,79.25h-10.19c.08,1.26.51,2.24,1.29,2.94.78.71,1.73,1.06,2.85,1.06.92,0,1.68-.21,2.29-.64.61-.43,1.04-1,1.29-1.71h2.28c-.34,1.23-1.02,2.22-2.05,2.99-1.02.77-2.3,1.15-3.82,1.15-1.21,0-2.29-.27-3.25-.81-.95-.54-1.7-1.32-2.25-2.32-.54-1-.81-2.16-.81-3.48s.26-2.47.79-3.47c.53-.99,1.27-1.76,2.22-2.29.95-.54,2.05-.8,3.29-.8s2.28.26,3.21.79,1.65,1.25,2.15,2.18c.5.92.76,1.97.76,3.13,0,.4-.02.83-.07,1.28Zm-2.65-3.81c-.36-.58-.84-1.02-1.45-1.33-.61-.3-1.29-.45-2.04-.45-1.07,0-1.98.34-2.73,1.02-.75.68-1.18,1.63-1.29,2.84h8.05c0-.81-.18-1.5-.54-2.08Z"/><path class="cls-4" d="m121.36,72.45c.69-.4,1.53-.6,2.52-.6v2.19h-.56c-2.37,0-3.56,1.29-3.56,3.86v6.94h-2.12v-12.75h2.12v2.07c.37-.73.9-1.29,1.59-1.7Z"/><path class="cls-1" d="m74.45,48.86c.28.47.46,1.02.46,1.62,0,1.75-1.42,3.17-3.17,3.17s-3.01-1.28-3.14-2.91l-6.09,1.95c.99,4.18,4.74,7.29,9.23,7.29,5.24,0,9.5-4.25,9.5-9.5,0-1.26-.25-2.46-.7-3.56l-6.09,1.95Z"/><path class="cls-2" d="m79.31,32.54c0,1.55-1.26,2.81-2.81,2.81s-2.81-1.26-2.81-2.81,1.26-2.81,2.81-2.81c.11,0,.22.02.33.03-1.47-.94-3.21-1.48-5.08-1.48-5.24,0-9.5,4.25-9.5,9.5,0,2.45.93,4.67,2.45,6.35,1.74,1.92,4.25,3.14,7.04,3.14s5.3-1.22,7.04-3.14c1.52-1.68,2.45-3.91,2.45-6.35,0-2.19-.75-4.2-1.99-5.81.04.19.06.38.06.57Zm-7.56,8.4c-1.75,0-3.17-1.42-3.17-3.17s1.42-3.17,3.17-3.17,3.17,1.42,3.17,3.17-1.42,3.17-3.17,3.17Z"/><path class="cls-3" d="m84.86,19.1c-2.91-1.81-6.74-.92-8.55,2-1.26,2.03-1.21,4.51-.06,6.44.22.37.49.73.79,1.05,0,0,0,0,0,0,.33.33.42.81.26,1.25-.02.06-.04.11-.07.17,0,.02-.01.04-.02.05-.21.34-.56.53-.93.56,0,0,0,0,0,0-.55.07-1.06.38-1.37.89,0,0,0,.02-.01.02-.54.9-.26,2.06.63,2.62.89.55,2.06.29,2.63-.6,0,0,.01-.01.02-.02.31-.5.36-1.1.19-1.62,0,0,0,0,0,0-.13-.3-.12-.64.02-.95.02-.05.04-.09.06-.14.04-.07.1-.11.15-.17.32-.34.8-.48,1.24-.33,0,0,0,0,0,0,.33.1.66.17,1,.21,2.33.29,4.73-.75,6.05-2.88,1.81-2.91.92-6.74-2-8.55Zm-.67,6.97c-.9,1.46-2.82,1.9-4.28,1-1.46-.9-1.9-2.82-1-4.28.9-1.46,2.82-1.9,4.28-1,1.46.9,1.9,2.82,1,4.28Z"/><text class="cls-5" transform="translate(25.61 100.77)"><tspan x="0" y="0">Revolutionize Your Workforce</tspan></text></svg>