<?xml version="1.0" encoding="UTF-8"?><svg id="Layer_1" xmlns="http://www.w3.org/2000/svg" xmlns:xlink="http://www.w3.org/1999/xlink" viewBox="0 0 219.39 116.36"><defs><style>.cls-1{fill:url(#linear-gradient);}.cls-1,.cls-2,.cls-3,.cls-4{stroke-width:0px;}.cls-5{fill:#ddd;font-family:Poppins-Light, Poppins;font-size:7.62px;font-weight:300;}.cls-2{fill:url(#linear-gradient-2);}.cls-3{fill:url(#linear-gradient-3);}.cls-4{fill:#fff;}</style><linearGradient id="linear-gradient" x1="77.18" y1="28.54" x2="25.08" y2="110.57" gradientUnits="userSpaceOnUse"><stop offset="0" stop-color="#f7f400"/><stop offset=".35" stop-color="#f0f"/><stop offset=".66" stop-color="#008fff"/><stop offset="1" stop-color="#00ffef"/></linearGradient><linearGradient id="linear-gradient-2" x1="69.49" y1="23.66" x2="17.39" y2="105.68" xlink:href="#linear-gradient"/><linearGradient id="linear-gradient-3" x1="70.55" y1="24.33" x2="18.44" y2="106.35" xlink:href="#linear-gradient"/></defs><path class="cls-4" d="m83.69,50.51c.91.53,1.59,1.2,2.04,2v-2.56h2.36v14.36c0,1.28-.27,2.42-.82,3.42-.55,1-1.33,1.78-2.35,2.35-1.02.56-2.2.85-3.55.85-1.85,0-3.39-.44-4.62-1.31-1.23-.87-1.96-2.06-2.18-3.57h2.31c.26.85.79,1.54,1.59,2.06s1.77.78,2.9.78c1.28,0,2.33-.4,3.14-1.21.81-.8,1.22-1.93,1.22-3.39v-2.95c-.46.82-1.15,1.51-2.05,2.05s-1.97.82-3.18.82-2.38-.31-3.4-.92c-1.02-.62-1.82-1.48-2.4-2.59-.58-1.11-.87-2.38-.87-3.8s.29-2.7.87-3.78c.58-1.09,1.38-1.93,2.4-2.53,1.02-.6,2.15-.9,3.4-.9s2.28.27,3.19.8Zm1.4,3.67c-.43-.79-1-1.39-1.73-1.81-.73-.42-1.53-.63-2.4-.63s-1.67.21-2.39.62c-.72.41-1.29,1.01-1.72,1.79-.43.79-.64,1.71-.64,2.77s.21,2.01.64,2.81c.43.8,1,1.4,1.72,1.82.72.42,1.51.63,2.39.63s1.67-.21,2.4-.63c.73-.42,1.3-1.03,1.73-1.82.43-.8.64-1.72.64-2.78s-.21-1.98-.64-2.77Z"/><path class="cls-4" d="m94.59,63.33c-1.07-.6-1.91-1.45-2.51-2.55-.61-1.1-.91-2.38-.91-3.83s.31-2.71.94-3.81c.62-1.1,1.47-1.95,2.55-2.54,1.08-.59,2.28-.88,3.62-.88s2.54.29,3.62.88c1.08.59,1.93,1.43,2.55,2.53.62,1.09.94,2.37.94,3.82s-.32,2.73-.96,3.83c-.64,1.1-1.51,1.95-2.6,2.55-1.09.6-2.31.9-3.64.9s-2.51-.3-3.58-.9Zm5.94-1.74c.74-.39,1.33-.98,1.78-1.77.45-.79.68-1.74.68-2.87s-.22-2.09-.67-2.87c-.44-.79-1.03-1.37-1.74-1.76-.72-.38-1.5-.58-2.33-.58s-1.64.19-2.35.58-1.28.97-1.71,1.76c-.43.79-.64,1.74-.64,2.87s.21,2.11.63,2.9c.42.79.98,1.37,1.68,1.76s1.47.58,2.31.58,1.62-.2,2.36-.59Z"/><path class="cls-4" d="m119.19,55.59c.54.43.97.96,1.28,1.59.32.63.47,1.31.47,2.03,0,.91-.23,1.72-.69,2.45-.46.73-1.13,1.3-2.01,1.72-.88.42-1.92.63-3.12.63h-6.67v-17.88h6.41c1.21,0,2.25.2,3.1.6.85.4,1.5.94,1.92,1.63.43.68.64,1.45.64,2.31,0,1.06-.29,1.94-.86,2.63-.57.69-1.33,1.19-2.27,1.5.65.1,1.24.37,1.78.8Zm-8.4-1.74h3.92c1.09,0,1.94-.26,2.54-.77.6-.51.9-1.22.9-2.13s-.3-1.62-.9-2.13c-.6-.51-1.46-.77-2.59-.77h-3.87v5.8Zm6.85,7.41c.65-.55.97-1.31.97-2.28s-.34-1.77-1.03-2.35c-.68-.57-1.6-.86-2.74-.86h-4.05v6.31h4.13c1.16,0,2.07-.27,2.72-.82Z"/><path class="cls-4" d="m136.92,57.85h-11.23c.09,1.38.56,2.47,1.42,3.24.86.78,1.91,1.17,3.14,1.17,1.01,0,1.85-.23,2.53-.71.68-.47,1.15-1.1,1.42-1.88h2.51c-.38,1.35-1.13,2.45-2.26,3.3-1.13.85-2.53,1.27-4.21,1.27-1.33,0-2.53-.3-3.58-.9-1.05-.6-1.88-1.45-2.47-2.55-.6-1.1-.9-2.38-.9-3.83s.29-2.73.87-3.82c.58-1.09,1.4-1.94,2.45-2.53,1.05-.59,2.26-.88,3.63-.88s2.51.29,3.54.87,1.82,1.38,2.37,2.4c.56,1.02.83,2.17.83,3.45,0,.45-.03.92-.08,1.41Zm-2.92-4.19c-.39-.64-.93-1.13-1.6-1.46-.68-.33-1.42-.5-2.24-.5-1.18,0-2.18.38-3.01,1.13-.83.75-1.3,1.8-1.42,3.13h8.87c0-.89-.2-1.65-.59-2.3Z"/><path class="cls-4" d="m142.92,51.87v8.28c0,.68.15,1.17.44,1.45.29.28.8.42,1.51.42h1.72v1.97h-2.1c-1.3,0-2.27-.3-2.92-.9-.65-.6-.97-1.58-.97-2.95v-8.28h-1.82v-1.92h1.82v-3.54h2.33v3.54h3.67v1.92h-3.67Z"/><path class="cls-4" d="m152.26,51.87v8.28c0,.68.15,1.17.44,1.45.29.28.8.42,1.51.42h1.72v1.97h-2.1c-1.3,0-2.27-.3-2.92-.9-.65-.6-.97-1.58-.97-2.95v-8.28h-1.82v-1.92h1.82v-3.54h2.33v3.54h3.67v1.92h-3.67Z"/><path class="cls-4" d="m171.49,57.85h-11.23c.09,1.38.56,2.47,1.42,3.24.86.78,1.91,1.17,3.14,1.17,1.01,0,1.85-.23,2.53-.71.68-.47,1.15-1.1,1.42-1.88h2.51c-.38,1.35-1.13,2.45-2.26,3.3-1.13.85-2.53,1.27-4.21,1.27-1.33,0-2.53-.3-3.58-.9-1.05-.6-1.88-1.45-2.47-2.55-.6-1.1-.9-2.38-.9-3.83s.29-2.73.87-3.82c.58-1.09,1.4-1.94,2.45-2.53,1.05-.59,2.26-.88,3.63-.88s2.51.29,3.54.87,1.82,1.38,2.37,2.4c.56,1.02.83,2.17.83,3.45,0,.45-.03.92-.08,1.41Zm-2.92-4.19c-.39-.64-.93-1.13-1.6-1.46-.68-.33-1.42-.5-2.24-.5-1.18,0-2.18.38-3.01,1.13-.83.75-1.3,1.8-1.42,3.13h8.87c0-.89-.2-1.65-.59-2.3Z"/><path class="cls-4" d="m178.74,50.36c.76-.44,1.69-.67,2.78-.67v2.41h-.62c-2.61,0-3.92,1.42-3.92,4.26v7.64h-2.33v-14.05h2.33v2.28c.41-.8.99-1.43,1.76-1.87Z"/><path class="cls-1" d="m53.64,65.55c.31.52.5,1.13.5,1.78,0,1.93-1.56,3.49-3.49,3.49s-3.32-1.42-3.46-3.21l-6.71,2.15c1.1,4.61,5.23,8.04,10.17,8.04,5.78,0,10.47-4.69,10.47-10.47,0-1.39-.28-2.72-.77-3.93l-6.71,2.15Z"/><path class="cls-2" d="m58.99,47.56c0,1.71-1.39,3.1-3.1,3.1s-3.1-1.39-3.1-3.1,1.39-3.1,3.1-3.1c.13,0,.25.02.37.04-1.62-1.03-3.54-1.64-5.6-1.64-5.78,0-10.47,4.69-10.47,10.47,0,2.7,1.03,5.15,2.7,7,1.92,2.12,4.68,3.46,7.76,3.46s5.85-1.34,7.76-3.46c1.68-1.86,2.7-4.31,2.7-7,0-2.41-.82-4.63-2.2-6.4.04.2.07.42.07.63Zm-8.33,9.26c-1.93,0-3.49-1.56-3.49-3.49s1.56-3.49,3.49-3.49,3.49,1.56,3.49,3.49-1.56,3.49-3.49,3.49Z"/><path class="cls-3" d="m65.11,32.76c-3.21-1.99-7.43-1.01-9.43,2.2-1.39,2.24-1.33,4.98-.07,7.1.24.41.53.8.87,1.16,0,0,0,0,0,0,.36.36.46.89.29,1.37-.02.06-.04.13-.07.18-.01.02-.01.04-.02.06-.23.37-.62.58-1.03.61,0,0,0,0,0,0-.6.08-1.17.42-1.51.98,0,0,0,.02-.01.03-.6.99-.29,2.27.69,2.89.98.61,2.27.32,2.89-.66,0,0,.01-.02.02-.02.35-.56.4-1.21.21-1.79,0,0,0,0,0,0-.14-.33-.13-.71.02-1.05.02-.05.04-.1.07-.15.05-.07.11-.13.17-.19.35-.38.88-.52,1.36-.36,0,0,0,0,0,0,.36.11.73.18,1.1.23,2.57.32,5.21-.83,6.66-3.18,1.99-3.21,1.01-7.43-2.2-9.43Zm-.74,7.68c-1,1.6-3.11,2.1-4.71,1.1-1.6-1-2.1-3.11-1.1-4.71,1-1.6,3.11-2.1,4.71-1.1,1.6,1,2.1,3.11,1.1,4.71Z"/><text class="cls-5" transform="translate(73.31 81.01)"><tspan x="0" y="0">Revolutionize Your Workforce</tspan></text></svg>