<?xml version="1.0" encoding="UTF-8"?><svg id="Layer_1" xmlns="http://www.w3.org/2000/svg" xmlns:xlink="http://www.w3.org/1999/xlink" viewBox="0 0 512 512"><defs><style>.cls-1{fill:url(#linear-gradient);}.cls-1,.cls-2,.cls-3{stroke-width:0px;}.cls-2{fill:url(#linear-gradient-2);}.cls-3{fill:url(#linear-gradient-3);}</style><linearGradient id="linear-gradient" x1="442.9" y1="42.11" x2="17.92" y2="711.1" gradientUnits="userSpaceOnUse"><stop offset="0" stop-color="#f7f400"/><stop offset=".35" stop-color="#f0f"/><stop offset=".66" stop-color="#008fff"/><stop offset="1" stop-color="#00ffef"/></linearGradient><linearGradient id="linear-gradient-2" x1="380.21" y1="2.28" x2="-44.77" y2="671.27" xlink:href="#linear-gradient"/><linearGradient id="linear-gradient-3" x1="388.82" y1="7.75" x2="-36.16" y2="676.74" xlink:href="#linear-gradient"/></defs><path class="cls-1" d="m250.88,343.98c2.55,4.27,4.11,9.2,4.11,14.54,0,15.72-12.75,28.47-28.47,28.47s-27.05-11.55-28.24-26.18l-54.72,17.51c8.94,37.58,42.64,65.56,82.96,65.56,47.14,0,85.36-38.22,85.36-85.36,0-11.35-2.27-22.15-6.31-32.04l-54.7,17.5Z"/><path class="cls-2" d="m294.51,197.26c0,13.97-11.32,25.29-25.29,25.29s-25.29-11.32-25.29-25.29,11.32-25.29,25.29-25.29c1.03,0,2.01.18,3,.3-13.22-8.41-28.87-13.34-45.69-13.34-47.14,0-85.36,38.22-85.36,85.36,0,22,8.39,41.98,22.06,57.12,15.62,17.3,38.16,28.24,63.3,28.24s47.68-10.94,63.3-28.24c13.66-15.13,22.06-35.12,22.06-57.12,0-19.68-6.72-37.74-17.91-52.18.34,1.66.53,3.39.53,5.15Zm-67.98,75.49c-15.72,0-28.47-12.75-28.47-28.47s12.74-28.47,28.47-28.47,28.47,12.75,28.47,28.47-12.75,28.47-28.47,28.47Z"/><path class="cls-3" d="m344.45,76.54c-26.19-16.27-60.62-8.23-76.89,17.97-11.36,18.29-10.83,40.58-.58,57.91,1.99,3.36,4.36,6.53,7.06,9.46-.01.01-.03.02-.04.03,2.95,2.92,3.79,7.3,2.35,11.2-.19.51-.34,1.02-.61,1.51-.08.15-.1.32-.19.46-1.89,3.04-5.05,4.77-8.36,4.99,0,.01,0,.02,0,.03-4.92.67-9.52,3.44-12.34,7.99-.04.07-.07.14-.12.21-4.85,8.06-2.35,18.55,5.67,23.54,8.02,4.98,18.53,2.57,23.61-5.35.04-.07.09-.13.14-.2,2.82-4.54,3.27-9.87,1.7-14.57,0,0,0,0,0,0-1.13-2.68-1.07-5.77.2-8.55.19-.41.32-.83.57-1.22.37-.6.89-1.02,1.35-1.52,2.86-3.07,7.18-4.28,11.13-2.93,0-.01,0-.03.01-.04,2.95.87,5.94,1.49,8.95,1.86,20.95,2.61,42.49-6.78,54.36-25.9,16.27-26.19,8.23-60.62-17.97-76.89Zm-6.06,62.63c-8.13,13.09-25.33,17.11-38.43,8.98-13.09-8.13-17.11-25.33-8.98-38.43,8.13-13.09,25.34-17.11,38.43-8.98,13.09,8.13,17.11,25.33,8.98,38.43Z"/></svg>