<?xml version="1.0" encoding="UTF-8"?><svg id="Layer_1" xmlns="http://www.w3.org/2000/svg" xmlns:xlink="http://www.w3.org/1999/xlink" viewBox="0 0 126.17 115.16"><defs><style>.cls-1{fill:#bbb;font-family:Poppins-Regular, Poppins;font-size:8.11px;}.cls-2{fill:url(#linear-gradient);}.cls-2,.cls-3,.cls-4,.cls-5{stroke-width:0px;}.cls-3{fill:url(#linear-gradient-2);}.cls-4{fill:url(#linear-gradient-3);}.cls-5{fill:#fff;}</style><linearGradient id="linear-gradient" x1="84.54" y1="9.32" x2="35.78" y2="86.07" gradientUnits="userSpaceOnUse"><stop offset="0" stop-color="#f7f400"/><stop offset=".35" stop-color="#f0f"/><stop offset=".66" stop-color="#008fff"/><stop offset="1" stop-color="#00ffef"/></linearGradient><linearGradient id="linear-gradient-2" x1="77.35" y1="4.75" x2="28.59" y2="81.5" xlink:href="#linear-gradient"/><linearGradient id="linear-gradient-3" x1="78.34" y1="5.37" x2="29.58" y2="82.13" xlink:href="#linear-gradient"/></defs><path class="cls-5" d="M21.89,68.44c.86.5,1.49,1.12,1.91,1.87v-2.4h2.21v13.45c0,1.2-.26,2.27-.77,3.21-.51.94-1.25,1.67-2.2,2.2-.95.53-2.06.79-3.33.79-1.73,0-3.17-.41-4.32-1.22s-1.83-1.93-2.04-3.34h2.16c.24.8.74,1.45,1.49,1.93s1.66.73,2.71.73c1.2,0,2.18-.38,2.94-1.13.76-.75,1.14-1.81,1.14-3.17v-2.76c-.43.77-1.07,1.41-1.92,1.92-.85.51-1.84.77-2.98.77s-2.23-.29-3.18-.87c-.95-.58-1.7-1.38-2.25-2.43-.54-1.04-.82-2.23-.82-3.55s.27-2.53.82-3.54c.54-1.02,1.29-1.8,2.25-2.37.95-.56,2.01-.84,3.18-.84s2.13.25,2.99.74ZM23.2,71.87c-.4-.74-.94-1.3-1.62-1.69-.68-.39-1.43-.59-2.25-.59s-1.56.19-2.23.58c-.67.38-1.21.94-1.61,1.68-.4.74-.6,1.6-.6,2.59s.2,1.88.6,2.63c.4.74.94,1.31,1.61,1.71.67.39,1.42.59,2.23.59s1.57-.2,2.25-.59c.68-.39,1.22-.96,1.62-1.71.4-.74.6-1.61.6-2.61s-.2-1.86-.6-2.59Z"/><path class="cls-5" d="M32.1,80.45c-1-.56-1.79-1.36-2.35-2.39-.57-1.03-.85-2.23-.85-3.59s.29-2.53.88-3.57c.58-1.03,1.38-1.83,2.39-2.38,1.01-.55,2.14-.83,3.39-.83s2.38.28,3.39.83c1.01.55,1.81,1.34,2.39,2.37.58,1.03.88,2.22.88,3.58s-.3,2.56-.9,3.59c-.6,1.03-1.41,1.83-2.44,2.39-1.02.56-2.16.84-3.41.84s-2.35-.28-3.35-.84ZM37.66,78.81c.69-.37,1.25-.92,1.67-1.66.42-.74.64-1.63.64-2.69s-.21-1.95-.62-2.69c-.42-.74-.96-1.28-1.63-1.65-.67-.36-1.4-.54-2.19-.54s-1.53.18-2.2.54-1.2.91-1.6,1.65c-.4.74-.6,1.63-.6,2.69s.2,1.98.59,2.71c.39.74.92,1.28,1.57,1.65s1.38.54,2.16.54,1.52-.18,2.21-.55Z"/><path class="cls-5" d="M55.13,73.19c.5.4.9.9,1.2,1.49.3.59.44,1.22.44,1.9,0,.85-.22,1.61-.65,2.29-.43.68-1.06,1.22-1.89,1.61-.83.39-1.8.59-2.92.59h-6.24v-16.74h6c1.14,0,2.1.19,2.91.56.8.38,1.4.88,1.8,1.53.4.64.6,1.36.6,2.16,0,.99-.27,1.81-.8,2.46-.54.65-1.25,1.12-2.13,1.41.61.1,1.17.34,1.67.74ZM47.27,71.56h3.67c1.02,0,1.82-.24,2.38-.72.56-.48.84-1.14.84-1.99s-.28-1.51-.84-1.99c-.56-.48-1.37-.72-2.43-.72h-3.63v5.43ZM53.68,78.5c.61-.51.91-1.22.91-2.14s-.32-1.66-.96-2.2c-.64-.54-1.5-.8-2.57-.8h-3.79v5.91h3.87c1.09,0,1.94-.26,2.55-.77Z"/><path class="cls-5" d="M71.74,75.31h-10.52c.08,1.3.52,2.31,1.33,3.04.81.73,1.79,1.09,2.94,1.09.94,0,1.73-.22,2.37-.66.63-.44,1.08-1.03,1.33-1.76h2.35c-.35,1.26-1.06,2.29-2.11,3.09-1.06.79-2.37,1.19-3.94,1.19-1.25,0-2.37-.28-3.35-.84-.99-.56-1.76-1.36-2.32-2.39-.56-1.03-.84-2.23-.84-3.59s.27-2.55.82-3.58c.54-1.02,1.31-1.81,2.29-2.37.99-.55,2.12-.83,3.4-.83s2.35.27,3.31.82,1.7,1.29,2.22,2.25c.52.95.78,2.03.78,3.23,0,.42-.02.86-.07,1.32ZM69,71.38c-.37-.6-.87-1.06-1.5-1.37-.63-.31-1.33-.47-2.1-.47-1.11,0-2.05.35-2.82,1.06-.78.7-1.22,1.68-1.33,2.93h8.31c0-.83-.18-1.55-.55-2.15Z"/><path class="cls-5" d="M77.36,69.71v7.76c0,.64.14,1.09.41,1.36.27.26.75.4,1.42.4h1.61v1.85h-1.97c-1.22,0-2.13-.28-2.74-.84-.61-.56-.91-1.48-.91-2.76v-7.76h-1.7v-1.8h1.7v-3.31h2.19v3.31h3.44v1.8h-3.44Z"/><path class="cls-5" d="M86.1,69.71v7.76c0,.64.14,1.09.41,1.36.27.26.75.4,1.42.4h1.61v1.85h-1.97c-1.22,0-2.13-.28-2.74-.84-.61-.56-.91-1.48-.91-2.76v-7.76h-1.7v-1.8h1.7v-3.31h2.19v3.31h3.44v1.8h-3.44Z"/><path class="cls-5" d="M104.12,75.31h-10.52c.08,1.3.52,2.31,1.33,3.04.81.73,1.79,1.09,2.94,1.09.94,0,1.73-.22,2.37-.66.63-.44,1.08-1.03,1.33-1.76h2.35c-.35,1.26-1.06,2.29-2.11,3.09-1.06.79-2.37,1.19-3.94,1.19-1.25,0-2.37-.28-3.35-.84-.99-.56-1.76-1.36-2.32-2.39-.56-1.03-.84-2.23-.84-3.59s.27-2.55.82-3.58c.54-1.02,1.31-1.81,2.29-2.37.99-.55,2.12-.83,3.4-.83s2.35.27,3.31.82,1.7,1.29,2.22,2.25c.52.95.78,2.03.78,3.23,0,.42-.02.86-.07,1.32ZM101.38,71.38c-.37-.6-.87-1.06-1.5-1.37-.63-.31-1.33-.47-2.1-.47-1.11,0-2.05.35-2.82,1.06-.78.7-1.22,1.68-1.33,2.93h8.31c0-.83-.18-1.55-.55-2.15Z"/><path class="cls-5" d="M110.9,68.29c.71-.42,1.58-.62,2.61-.62v2.26h-.58c-2.45,0-3.67,1.33-3.67,3.99v7.16h-2.19v-13.16h2.19v2.14c.38-.75.93-1.34,1.65-1.75Z"/><path class="cls-2" d="M62.51,43.95c.29.49.47,1.06.47,1.67,0,1.8-1.46,3.27-3.27,3.27s-3.1-1.32-3.24-3l-6.28,2.01c1.03,4.31,4.89,7.52,9.52,7.52,5.41,0,9.79-4.38,9.79-9.79,0-1.3-.26-2.54-.72-3.68l-6.28,2.01Z"/><path class="cls-3" d="M67.52,27.12c0,1.6-1.3,2.9-2.9,2.9s-2.9-1.3-2.9-2.9,1.3-2.9,2.9-2.9c.12,0,.23.02.34.03-1.52-.96-3.31-1.53-5.24-1.53-5.41,0-9.79,4.38-9.79,9.79,0,2.52.96,4.82,2.53,6.55,1.79,1.99,4.38,3.24,7.26,3.24s5.47-1.26,7.26-3.24c1.57-1.74,2.53-4.03,2.53-6.55,0-2.26-.77-4.33-2.05-5.99.04.19.06.39.06.59ZM59.72,35.78c-1.8,0-3.27-1.46-3.27-3.27s1.46-3.27,3.27-3.27,3.27,1.46,3.27,3.27-1.46,3.27-3.27,3.27Z"/><path class="cls-4" d="M73.25,13.27c-3.01-1.87-6.95-.94-8.82,2.06-1.3,2.1-1.24,4.66-.07,6.64.23.39.5.75.81,1.09,0,0,0,0,0,0,.34.34.43.84.27,1.29-.02.06-.04.12-.07.17,0,.02-.01.04-.02.05-.22.35-.58.55-.96.57,0,0,0,0,0,0-.56.08-1.09.39-1.42.92,0,0,0,.02-.01.02-.56.93-.27,2.13.65,2.7.92.57,2.13.3,2.71-.61,0,0,.01-.01.02-.02.32-.52.38-1.13.2-1.67,0,0,0,0,0,0-.13-.31-.12-.66.02-.98.02-.05.04-.1.06-.14.04-.07.1-.12.16-.17.33-.35.82-.49,1.28-.34,0,0,0,0,0,0,.34.1.68.17,1.03.21,2.4.3,4.87-.78,6.24-2.97,1.87-3.01.94-6.95-2.06-8.82ZM72.55,20.45c-.93,1.5-2.91,1.96-4.41,1.03-1.5-.93-1.96-2.91-1.03-4.41.93-1.5,2.91-1.96,4.41-1.03,1.5.93,1.96,2.91,1.03,4.41Z"/><text class="cls-1" transform="translate(32.87 98.47)"><tspan x="0" y="0">by BetterPlace </tspan></text></svg>