<?xml version="1.0" encoding="UTF-8"?><svg id="Layer_1" xmlns="http://www.w3.org/2000/svg" viewBox="0 0 126.17 115.16"><defs><style>.cls-1{stroke-width:0px;}</style></defs><path class="cls-1" d="M21.89,68.44c.86.5,1.49,1.12,1.91,1.87v-2.4h2.21v13.45c0,1.2-.26,2.27-.77,3.21-.51.94-1.25,1.67-2.2,2.2-.95.53-2.06.79-3.33.79-1.73,0-3.17-.41-4.32-1.22s-1.83-1.93-2.04-3.34h2.16c.24.8.74,1.45,1.49,1.93.75.49,1.66.73,2.71.73,1.2,0,2.18-.38,2.94-1.13.76-.75,1.14-1.81,1.14-3.17v-2.76c-.43.77-1.07,1.41-1.92,1.92s-1.84.77-2.98.77-2.23-.29-3.18-.87c-.95-.58-1.7-1.38-2.25-2.43-.54-1.04-.82-2.23-.82-3.55s.27-2.53.82-3.54c.54-1.02,1.29-1.8,2.25-2.37.95-.56,2.01-.84,3.18-.84s2.13.25,2.99.74ZM23.2,71.87c-.4-.74-.94-1.3-1.62-1.69-.68-.39-1.43-.59-2.25-.59s-1.56.19-2.23.58c-.67.38-1.21.94-1.61,1.68-.4.74-.6,1.6-.6,2.59s.2,1.88.6,2.63c.4.74.94,1.31,1.61,1.71.67.39,1.42.59,2.23.59s1.57-.2,2.25-.59c.68-.39,1.22-.96,1.62-1.71.4-.74.6-1.61.6-2.61s-.2-1.86-.6-2.59Z"/><path class="cls-1" d="M32.1,80.45c-1-.56-1.79-1.36-2.35-2.39-.57-1.03-.85-2.23-.85-3.59s.29-2.53.88-3.57c.58-1.03,1.38-1.83,2.39-2.38,1.01-.55,2.14-.83,3.39-.83s2.38.28,3.39.83c1.01.55,1.81,1.34,2.39,2.37.58,1.03.88,2.22.88,3.58s-.3,2.56-.9,3.59c-.6,1.03-1.41,1.83-2.44,2.39-1.02.56-2.16.84-3.41.84s-2.35-.28-3.35-.84ZM37.66,78.81c.69-.37,1.25-.92,1.67-1.66.42-.74.64-1.63.64-2.69s-.21-1.95-.62-2.69c-.42-.74-.96-1.28-1.63-1.65-.67-.36-1.4-.54-2.19-.54s-1.53.18-2.2.54c-.66.36-1.2.91-1.6,1.65-.4.74-.6,1.63-.6,2.69s.2,1.98.59,2.71c.39.74.92,1.28,1.57,1.65s1.38.54,2.16.54,1.52-.18,2.21-.55Z"/><path class="cls-1" d="M55.13,73.19c.5.4.9.9,1.2,1.49.3.59.44,1.22.44,1.9,0,.85-.22,1.61-.65,2.29-.43.68-1.06,1.22-1.89,1.61-.83.39-1.8.59-2.92.59h-6.24v-16.74h6c1.14,0,2.1.19,2.91.56.8.38,1.4.88,1.8,1.53.4.64.6,1.36.6,2.16,0,.99-.27,1.81-.8,2.46-.54.65-1.25,1.12-2.13,1.41.61.1,1.17.34,1.67.74ZM47.27,71.56h3.67c1.02,0,1.82-.24,2.38-.72.56-.48.84-1.14.84-1.99s-.28-1.51-.84-1.99c-.56-.48-1.37-.72-2.43-.72h-3.63v5.43ZM53.68,78.5c.61-.51.91-1.22.91-2.14s-.32-1.66-.96-2.2c-.64-.54-1.5-.8-2.57-.8h-3.79v5.91h3.87c1.09,0,1.94-.26,2.55-.77Z"/><path class="cls-1" d="M71.74,75.31h-10.52c.08,1.3.52,2.31,1.33,3.04.81.73,1.79,1.09,2.94,1.09.94,0,1.73-.22,2.37-.66.63-.44,1.08-1.03,1.33-1.76h2.35c-.35,1.26-1.06,2.29-2.11,3.09-1.06.79-2.37,1.19-3.94,1.19-1.25,0-2.37-.28-3.35-.84-.99-.56-1.76-1.36-2.32-2.39-.56-1.03-.84-2.23-.84-3.59s.27-2.55.82-3.58c.54-1.02,1.31-1.81,2.29-2.37.99-.55,2.12-.83,3.4-.83s2.35.27,3.31.82,1.7,1.29,2.22,2.25c.52.95.78,2.03.78,3.23,0,.42-.02.86-.07,1.32ZM69,71.38c-.37-.6-.87-1.06-1.5-1.37-.63-.31-1.33-.47-2.1-.47-1.11,0-2.05.35-2.82,1.06-.78.7-1.22,1.68-1.33,2.93h8.31c0-.83-.18-1.55-.55-2.15Z"/><path class="cls-1" d="M77.36,69.71v7.76c0,.64.14,1.09.41,1.36.27.26.75.4,1.42.4h1.61v1.85h-1.97c-1.22,0-2.13-.28-2.74-.84-.61-.56-.91-1.48-.91-2.76v-7.76h-1.7v-1.8h1.7v-3.31h2.19v3.31h3.44v1.8h-3.44Z"/><path class="cls-1" d="M86.1,69.71v7.76c0,.64.14,1.09.41,1.36.27.26.75.4,1.42.4h1.61v1.85h-1.97c-1.22,0-2.13-.28-2.74-.84-.61-.56-.91-1.48-.91-2.76v-7.76h-1.7v-1.8h1.7v-3.31h2.19v3.31h3.44v1.8h-3.44Z"/><path class="cls-1" d="M104.12,75.31h-10.52c.08,1.3.52,2.31,1.33,3.04.81.73,1.79,1.09,2.94,1.09.94,0,1.73-.22,2.37-.66.63-.44,1.08-1.03,1.33-1.76h2.35c-.35,1.26-1.06,2.29-2.11,3.09-1.06.79-2.37,1.19-3.94,1.19-1.25,0-2.37-.28-3.35-.84-.99-.56-1.76-1.36-2.32-2.39-.56-1.03-.84-2.23-.84-3.59s.27-2.55.82-3.58c.54-1.02,1.31-1.81,2.29-2.37.99-.55,2.12-.83,3.4-.83s2.35.27,3.31.82,1.7,1.29,2.22,2.25c.52.95.78,2.03.78,3.23,0,.42-.02.86-.07,1.32ZM101.38,71.38c-.37-.6-.87-1.06-1.5-1.37-.63-.31-1.33-.47-2.1-.47-1.11,0-2.05.35-2.82,1.06-.78.7-1.22,1.68-1.33,2.93h8.31c0-.83-.18-1.55-.55-2.15Z"/><path class="cls-1" d="M110.9,68.29c.71-.42,1.58-.62,2.61-.62v2.26h-.58c-2.45,0-3.67,1.33-3.67,3.99v7.16h-2.19v-13.16h2.19v2.14c.38-.75.93-1.34,1.65-1.75Z"/><path class="cls-1" d="M62.51,43.95c.29.49.47,1.06.47,1.67,0,1.8-1.46,3.27-3.27,3.27s-3.1-1.32-3.24-3l-6.28,2.01c1.03,4.31,4.89,7.52,9.52,7.52,5.41,0,9.79-4.38,9.79-9.79,0-1.3-.26-2.54-.72-3.68l-6.28,2.01Z"/><path class="cls-1" d="M67.52,27.12c0,1.6-1.3,2.9-2.9,2.9s-2.9-1.3-2.9-2.9,1.3-2.9,2.9-2.9c.12,0,.23.02.34.03-1.52-.96-3.31-1.53-5.24-1.53-5.41,0-9.79,4.38-9.79,9.79,0,2.52.96,4.82,2.53,6.55,1.79,1.99,4.38,3.24,7.26,3.24s5.47-1.26,7.26-3.24c1.57-1.74,2.53-4.03,2.53-6.55,0-2.26-.77-4.33-2.05-5.99.04.19.06.39.06.59ZM59.72,35.78c-1.8,0-3.27-1.46-3.27-3.27s1.46-3.27,3.27-3.27,3.27,1.46,3.27,3.27-1.46,3.27-3.27,3.27Z"/><path class="cls-1" d="M73.25,13.27c-3.01-1.87-6.95-.94-8.82,2.06-1.3,2.1-1.24,4.66-.07,6.64.23.39.5.75.81,1.09,0,0,0,0,0,0,.34.34.43.84.27,1.29-.02.06-.04.12-.07.17,0,.02-.01.04-.02.05-.22.35-.58.55-.96.57,0,0,0,0,0,0-.56.08-1.09.39-1.42.92,0,0,0,.02-.01.02-.56.93-.27,2.13.65,2.7.92.57,2.13.3,2.71-.61,0,0,.01-.01.02-.02.32-.52.38-1.13.2-1.67,0,0,0,0,0,0-.13-.31-.12-.66.02-.98.02-.05.04-.1.06-.14.04-.07.1-.12.16-.17.33-.35.82-.49,1.28-.34,0,0,0,0,0,0,.34.1.68.17,1.03.21,2.4.3,4.87-.78,6.24-2.97,1.87-3.01.94-6.95-2.06-8.82ZM72.55,20.45c-.93,1.5-2.91,1.96-4.41,1.03-1.5-.93-1.96-2.91-1.03-4.41.93-1.5,2.91-1.96,4.41-1.03,1.5.93,1.96,2.91,1.03,4.41Z"/><path class="cls-1" d="M34.9,94.21c.29-.17.62-.25,1-.25.4,0,.76.09,1.08.28.32.19.57.46.75.8.18.34.28.74.28,1.2s-.09.85-.28,1.2c-.18.35-.44.62-.76.82-.32.19-.68.29-1.07.29s-.72-.08-1.01-.25-.51-.38-.65-.64v.82h-.74v-6h.74v2.38c.15-.26.37-.48.66-.65ZM37.05,95.36c-.14-.25-.32-.44-.55-.57s-.48-.19-.76-.19-.52.07-.75.2c-.23.13-.41.32-.55.58-.14.25-.21.54-.21.87s.07.63.21.88c.14.25.32.44.55.58.23.13.48.2.75.2s.53-.07.76-.2.41-.32.55-.58c.13-.25.2-.55.2-.89s-.07-.63-.2-.88Z"/><path class="cls-1" d="M42.8,94.03l-2.67,6.53h-.76l.88-2.14-1.79-4.39h.82l1.39,3.6,1.38-3.6h.76Z"/><path class="cls-1" d="M49.09,95.81c.17.13.31.3.41.5.1.2.15.41.15.64,0,.29-.07.54-.22.77-.15.23-.36.41-.64.54-.28.13-.61.2-.98.2h-2.11v-5.65h2.03c.38,0,.71.06.98.19.27.13.47.3.61.51.14.22.2.46.2.73,0,.34-.09.61-.27.83s-.42.38-.72.47c.21.03.39.12.56.25ZM46.44,95.26h1.24c.35,0,.61-.08.8-.24.19-.16.28-.39.28-.67s-.09-.51-.28-.67c-.19-.16-.46-.24-.82-.24h-1.22v1.83ZM48.6,97.61c.21-.17.31-.41.31-.72s-.11-.56-.32-.74c-.22-.18-.5-.27-.87-.27h-1.28v1.99h1.3c.37,0,.65-.09.86-.26Z"/><path class="cls-1" d="M54.7,96.53h-3.55c.03.44.18.78.45,1.03.27.25.6.37.99.37.32,0,.58-.07.8-.22s.36-.35.45-.6h.79c-.12.43-.36.77-.71,1.04-.36.27-.8.4-1.33.4-.42,0-.8-.09-1.13-.28-.33-.19-.59-.46-.78-.81-.19-.35-.28-.75-.28-1.21s.09-.86.28-1.21.44-.61.77-.8c.33-.19.71-.28,1.15-.28s.79.09,1.12.28.57.44.75.76c.18.32.26.68.26,1.09,0,.14,0,.29-.02.45ZM53.77,95.2c-.12-.2-.29-.36-.51-.46s-.45-.16-.71-.16c-.37,0-.69.12-.95.36s-.41.57-.45.99h2.8c0-.28-.06-.52-.19-.73Z"/><path class="cls-1" d="M56.6,94.64v2.62c0,.22.05.37.14.46s.25.13.48.13h.54v.62h-.66c-.41,0-.72-.09-.92-.28-.21-.19-.31-.5-.31-.93v-2.62h-.58v-.61h.58v-1.12h.74v1.12h1.16v.61h-1.16Z"/><path class="cls-1" d="M59.55,94.64v2.62c0,.22.05.37.14.46s.25.13.48.13h.54v.62h-.66c-.41,0-.72-.09-.92-.28-.21-.19-.31-.5-.31-.93v-2.62h-.58v-.61h.58v-1.12h.74v1.12h1.16v.61h-1.16Z"/><path class="cls-1" d="M65.62,96.53h-3.55c.03.44.18.78.45,1.03.27.25.6.37.99.37.32,0,.58-.07.8-.22s.36-.35.45-.6h.79c-.12.43-.36.77-.71,1.04-.36.27-.8.4-1.33.4-.42,0-.8-.09-1.13-.28-.33-.19-.59-.46-.78-.81-.19-.35-.28-.75-.28-1.21s.09-.86.28-1.21.44-.61.77-.8c.33-.19.71-.28,1.15-.28s.79.09,1.12.28.57.44.75.76c.18.32.26.68.26,1.09,0,.14,0,.29-.02.45ZM64.7,95.2c-.12-.2-.29-.36-.51-.46s-.45-.16-.71-.16c-.37,0-.69.12-.95.36s-.41.57-.45.99h2.8c0-.28-.06-.52-.19-.73Z"/><path class="cls-1" d="M67.91,94.16c.24-.14.53-.21.88-.21v.76h-.19c-.83,0-1.24.45-1.24,1.35v2.42h-.74v-4.44h.74v.72c.13-.25.31-.45.56-.59Z"/><path class="cls-1" d="M72.94,95.65c-.32.31-.81.47-1.47.47h-1.09v2.36h-.74v-5.65h1.82c.64,0,1.12.15,1.45.46.33.31.5.71.5,1.19s-.16.86-.48,1.17ZM72.38,95.24c.19-.18.29-.43.29-.76,0-.7-.4-1.05-1.2-1.05h-1.09v2.08h1.09c.41,0,.71-.09.91-.27Z"/><path class="cls-1" d="M75.08,92.48v6h-.74v-6h.74Z"/><path class="cls-1" d="M76.33,95.04c.18-.34.44-.61.76-.8.32-.19.68-.28,1.07-.28s.73.08,1.01.25c.29.17.5.38.64.63v-.81h.75v4.44h-.75v-.83c-.15.26-.36.47-.65.64-.29.17-.62.25-1.01.25s-.75-.1-1.07-.29c-.32-.19-.57-.47-.75-.82-.18-.35-.28-.75-.28-1.2s.09-.85.28-1.2ZM79.61,95.37c-.14-.25-.32-.44-.55-.57-.23-.13-.48-.2-.76-.2s-.53.06-.75.19c-.23.13-.41.32-.54.57-.13.25-.2.54-.2.88s.07.64.2.89c.14.25.32.44.54.58.23.13.48.2.75.2s.53-.07.76-.2c.23-.13.41-.32.55-.58.13-.25.2-.54.2-.88s-.07-.63-.2-.88Z"/><path class="cls-1" d="M81.81,95.04c.18-.34.44-.61.77-.8.33-.19.7-.28,1.12-.28.55,0,1,.13,1.35.4.35.26.59.63.7,1.1h-.79c-.08-.27-.22-.48-.44-.64s-.49-.24-.81-.24c-.42,0-.76.15-1.02.43s-.39.7-.39,1.23.13.95.39,1.24c.26.29.6.44,1.02.44.32,0,.59-.08.81-.23.22-.15.36-.37.45-.65h.79c-.12.45-.36.82-.71,1.09-.36.27-.8.41-1.34.41-.42,0-.8-.09-1.12-.28-.33-.19-.58-.46-.77-.8s-.28-.75-.28-1.22.09-.86.28-1.2Z"/><path class="cls-1" d="M90.76,96.53h-3.55c.03.44.18.78.45,1.03.27.25.6.37.99.37.32,0,.58-.07.8-.22s.36-.35.45-.6h.79c-.12.43-.36.77-.71,1.04-.36.27-.8.4-1.33.4-.42,0-.8-.09-1.13-.28-.33-.19-.59-.46-.78-.81-.19-.35-.28-.75-.28-1.21s.09-.86.28-1.21.44-.61.77-.8c.33-.19.71-.28,1.15-.28s.79.09,1.12.28.57.44.75.76c.18.32.26.68.26,1.09,0,.14,0,.29-.02.45ZM89.83,95.2c-.12-.2-.29-.36-.51-.46s-.45-.16-.71-.16c-.37,0-.69.12-.95.36s-.41.57-.45.99h2.8c0-.28-.06-.52-.19-.73Z"/></svg>