<?xml version="1.0" encoding="UTF-8"?><svg id="Layer_1" xmlns="http://www.w3.org/2000/svg" xmlns:xlink="http://www.w3.org/1999/xlink" viewBox="0 0 126.17 64.4"><defs><style>.cls-1{fill:#4d4d4d;font-family:Poppins-Regular, Poppins;font-size:8.11px;}.cls-2{fill:url(#linear-gradient);}.cls-2,.cls-3,.cls-4,.cls-5{stroke-width:0px;}.cls-3{fill:url(#linear-gradient-2);}.cls-4{fill:url(#linear-gradient-3);}</style><linearGradient id="linear-gradient" x1="36.58" y1="6.54" x2="-4.42" y2="71.08" gradientUnits="userSpaceOnUse"><stop offset="0" stop-color="#f7f400"/><stop offset=".35" stop-color="#f0f"/><stop offset=".66" stop-color="#008fff"/><stop offset="1" stop-color="#00ffef"/></linearGradient><linearGradient id="linear-gradient-2" x1="30.53" y1="2.7" x2="-10.47" y2="67.23" xlink:href="#linear-gradient"/><linearGradient id="linear-gradient-3" x1="31.36" y1="3.23" x2="-9.64" y2="67.76" xlink:href="#linear-gradient"/></defs><path class="cls-5" d="m41.7,23.83c.72.42,1.25.94,1.6,1.57v-2.02h1.86v11.3c0,1.01-.21,1.91-.65,2.69-.43.79-1.05,1.4-1.85,1.85-.8.44-1.73.67-2.79.67-1.45,0-2.66-.34-3.63-1.03s-1.54-1.62-1.72-2.8h1.82c.2.67.62,1.21,1.25,1.62s1.39.62,2.28.62c1.01,0,1.83-.32,2.47-.95.64-.63.96-1.52.96-2.66v-2.32c-.36.65-.9,1.18-1.61,1.61s-1.55.65-2.5.65-1.87-.24-2.67-.73c-.8-.48-1.43-1.16-1.89-2.04-.46-.87-.69-1.87-.69-2.99s.23-2.12.69-2.98c.46-.85,1.09-1.52,1.89-1.99.8-.47,1.69-.71,2.67-.71s1.79.21,2.51.63Zm1.1,2.89c-.34-.62-.79-1.09-1.36-1.42-.57-.33-1.2-.49-1.89-.49s-1.31.16-1.88.48c-.56.32-1.02.79-1.35,1.41-.34.62-.5,1.35-.5,2.18s.17,1.58.5,2.21c.34.63.79,1.1,1.35,1.43.57.33,1.19.49,1.88.49s1.31-.16,1.89-.49c.57-.33,1.03-.81,1.36-1.43.34-.63.51-1.36.51-2.19s-.17-1.56-.51-2.18Z"/><path class="cls-5" d="m50.27,33.91c-.84-.47-1.5-1.14-1.98-2.01-.48-.87-.72-1.87-.72-3.02s.25-2.13.74-3c.49-.87,1.16-1.53,2.01-2,.85-.46,1.8-.7,2.84-.7s2,.23,2.84.7c.85.46,1.52,1.13,2.01,1.99.49.86.74,1.86.74,3.01s-.25,2.15-.76,3.02c-.5.87-1.19,1.54-2.05,2.01-.86.47-1.82.71-2.87.71s-1.97-.24-2.82-.71Zm4.67-1.37c.58-.31,1.05-.77,1.4-1.39.36-.62.53-1.37.53-2.26s-.17-1.64-.52-2.26c-.35-.62-.81-1.08-1.37-1.38-.56-.3-1.18-.45-1.84-.45s-1.29.15-1.85.45-1.01.76-1.34,1.38c-.34.62-.5,1.37-.5,2.26s.16,1.66.49,2.28c.33.62.77,1.08,1.32,1.38s1.16.45,1.82.45,1.28-.15,1.86-.46Z"/><path class="cls-5" d="m69.62,27.82c.42.34.76.75,1.01,1.25.25.5.37,1.03.37,1.59,0,.71-.18,1.36-.54,1.93-.36.57-.89,1.02-1.58,1.35-.69.33-1.51.49-2.45.49h-5.25v-14.06h5.04c.95,0,1.77.16,2.44.47.67.32,1.18.74,1.51,1.28.34.54.5,1.14.5,1.82,0,.83-.22,1.52-.68,2.07-.45.55-1.05.94-1.79,1.18.51.08.98.29,1.4.63Zm-6.61-1.37h3.09c.86,0,1.53-.2,2-.61.47-.4.71-.96.71-1.67s-.24-1.27-.71-1.67c-.47-.4-1.15-.61-2.04-.61h-3.05v4.56Zm5.39,5.83c.51-.43.77-1.03.77-1.8s-.27-1.4-.81-1.85c-.54-.45-1.26-.68-2.16-.68h-3.19v4.96h3.25c.91,0,1.63-.21,2.14-.65Z"/><path class="cls-5" d="m83.58,29.6h-8.84c.07,1.09.44,1.94,1.12,2.55.68.61,1.5.92,2.47.92.79,0,1.46-.18,1.99-.55.53-.37.9-.86,1.12-1.48h1.98c-.3,1.06-.89,1.93-1.78,2.59-.89.67-1.99,1-3.31,1-1.05,0-1.99-.24-2.82-.71-.83-.47-1.48-1.14-1.95-2.01-.47-.87-.71-1.87-.71-3.02s.23-2.15.69-3.01c.46-.86,1.1-1.52,1.93-1.99.83-.46,1.78-.7,2.86-.7s1.98.23,2.78.69,1.43,1.09,1.87,1.89c.44.8.66,1.71.66,2.71,0,.35-.02.72-.06,1.11Zm-2.3-3.3c-.31-.5-.73-.89-1.26-1.15-.53-.26-1.12-.39-1.77-.39-.93,0-1.72.3-2.37.89-.65.59-1.03,1.41-1.12,2.46h6.98c0-.7-.15-1.3-.46-1.81Z"/><path class="cls-5" d="m88.3,24.9v6.52c0,.54.11.92.34,1.14.23.22.63.33,1.19.33h1.35v1.55h-1.66c-1.02,0-1.79-.24-2.3-.71-.51-.47-.77-1.24-.77-2.32v-6.52h-1.43v-1.51h1.43v-2.78h1.84v2.78h2.89v1.51h-2.89Z"/><path class="cls-5" d="m95.64,24.9v6.52c0,.54.11.92.34,1.14.23.22.63.33,1.19.33h1.35v1.55h-1.66c-1.02,0-1.79-.24-2.3-.71-.51-.47-.77-1.24-.77-2.32v-6.52h-1.43v-1.51h1.43v-2.78h1.84v2.78h2.89v1.51h-2.89Z"/><path class="cls-5" d="m110.78,29.6h-8.84c.07,1.09.44,1.94,1.12,2.55.68.61,1.5.92,2.47.92.79,0,1.46-.18,1.99-.55.53-.37.9-.86,1.12-1.48h1.98c-.3,1.06-.89,1.93-1.78,2.59-.89.67-1.99,1-3.31,1-1.05,0-1.99-.24-2.82-.71-.83-.47-1.48-1.14-1.95-2.01-.47-.87-.71-1.87-.71-3.02s.23-2.15.69-3.01c.46-.86,1.1-1.52,1.93-1.99.83-.46,1.78-.7,2.86-.7s1.98.23,2.78.69,1.43,1.09,1.87,1.89c.44.8.66,1.71.66,2.71,0,.35-.02.72-.06,1.11Zm-2.3-3.3c-.31-.5-.73-.89-1.26-1.15-.53-.26-1.12-.39-1.77-.39-.93,0-1.72.3-2.37.89-.65.59-1.03,1.41-1.12,2.46h6.98c0-.7-.15-1.3-.46-1.81Z"/><path class="cls-5" d="m116.48,23.7c.6-.35,1.33-.52,2.19-.52v1.9h-.48c-2.06,0-3.09,1.12-3.09,3.35v6.01h-1.84v-11.06h1.84v1.8c.32-.63.78-1.12,1.38-1.47Z"/><path class="cls-2" d="m18.05,35.66c.25.41.4.89.4,1.4,0,1.52-1.23,2.75-2.75,2.75s-2.61-1.11-2.72-2.53l-5.28,1.69c.86,3.62,4.11,6.32,8,6.32,4.55,0,8.23-3.69,8.23-8.23,0-1.09-.22-2.14-.61-3.09l-5.28,1.69Z"/><path class="cls-3" d="m22.26,21.51c0,1.35-1.09,2.44-2.44,2.44s-2.44-1.09-2.44-2.44,1.09-2.44,2.44-2.44c.1,0,.19.02.29.03-1.28-.81-2.78-1.29-4.41-1.29-4.55,0-8.23,3.69-8.23,8.23,0,2.12.81,4.05,2.13,5.51,1.51,1.67,3.68,2.72,6.11,2.72s4.6-1.06,6.11-2.72c1.32-1.46,2.13-3.39,2.13-5.51,0-1.9-.65-3.64-1.73-5.03.03.16.05.33.05.5Zm-6.56,7.28c-1.52,0-2.75-1.23-2.75-2.75s1.23-2.75,2.75-2.75,2.75,1.23,2.75,2.75-1.23,2.75-2.75,2.75Z"/><path class="cls-4" d="m27.08,9.86c-2.53-1.57-5.85-.79-7.42,1.73-1.1,1.76-1.05,3.91-.06,5.59.19.32.42.63.68.91,0,0,0,0,0,0,.28.28.37.7.23,1.08-.02.05-.03.1-.06.15,0,.01,0,.03-.02.04-.18.29-.49.46-.81.48,0,0,0,0,0,0-.47.06-.92.33-1.19.77,0,0,0,.01-.01.02-.47.78-.23,1.79.55,2.27.77.48,1.79.25,2.28-.52,0,0,0-.01.01-.02.27-.44.32-.95.16-1.41,0,0,0,0,0,0-.11-.26-.1-.56.02-.82.02-.04.03-.08.05-.12.04-.06.09-.1.13-.15.28-.3.69-.41,1.07-.28,0,0,0,0,0,0,.28.08.57.14.86.18,2.02.25,4.1-.65,5.24-2.5,1.57-2.53.79-5.85-1.73-7.42Zm-.58,6.04c-.78,1.26-2.44,1.65-3.71.87-1.26-.78-1.65-2.44-.87-3.71.78-1.26,2.44-1.65,3.71-.87,1.26.78,1.65,2.44.87,3.71Z"/><text class="cls-1" transform="translate(60.67 47.29)"><tspan x="0" y="0">by BetterPlace </tspan></text></svg>