<?xml version="1.0" encoding="UTF-8"?><svg id="Layer_1" xmlns="http://www.w3.org/2000/svg" xmlns:xlink="http://www.w3.org/1999/xlink" viewBox="0 0 286.95 125.59"><defs><style>.cls-1{fill:url(#linear-gradient);}.cls-1,.cls-2,.cls-3,.cls-4{stroke-width:0px;}.cls-2{fill:url(#linear-gradient-2);}.cls-3{fill:url(#linear-gradient-3);}</style><linearGradient id="linear-gradient" x1="86.93" y1="18.76" x2="-.57" y2="156.49" gradientUnits="userSpaceOnUse"><stop offset="0" stop-color="#f7f400"/><stop offset=".35" stop-color="#f0f"/><stop offset=".66" stop-color="#008fff"/><stop offset="1" stop-color="#00ffef"/></linearGradient><linearGradient id="linear-gradient-2" x1="74.02" y1="10.56" x2="-13.47" y2="148.3" xlink:href="#linear-gradient"/><linearGradient id="linear-gradient-3" x1="75.8" y1="11.69" x2="-11.7" y2="149.42" xlink:href="#linear-gradient"/></defs><path class="cls-4" d="m97.86,55.65c1.54.89,2.68,2.01,3.42,3.36v-4.31h3.96v24.12c0,2.15-.46,4.07-1.38,5.75-.92,1.68-2.23,2.99-3.94,3.94-1.71.95-3.7,1.42-5.96,1.42-3.1,0-5.69-.73-7.75-2.2-2.07-1.46-3.29-3.46-3.66-5.99h3.88c.43,1.44,1.32,2.59,2.67,3.47,1.35.88,2.97,1.31,4.87,1.31,2.15,0,3.91-.67,5.28-2.02,1.36-1.35,2.05-3.25,2.05-5.68v-4.95c-.78,1.38-1.93,2.53-3.45,3.45-1.52.92-3.3,1.38-5.34,1.38s-4-.52-5.71-1.55c-1.71-1.03-3.05-2.48-4.03-4.35-.98-1.87-1.46-3.99-1.46-6.37s.49-4.53,1.46-6.35c.97-1.82,2.32-3.24,4.03-4.24,1.71-1,3.61-1.51,5.71-1.51s3.83.45,5.36,1.34Zm2.35,6.16c-.72-1.32-1.69-2.33-2.91-3.04-1.22-.7-2.56-1.06-4.03-1.06s-2.8.35-4,1.03c-1.2.69-2.17,1.69-2.88,3.01-.72,1.32-1.08,2.87-1.08,4.65s.36,3.38,1.08,4.72c.72,1.34,1.68,2.35,2.88,3.06,1.21.7,2.54,1.06,4,1.06s2.81-.35,4.03-1.06c1.22-.7,2.19-1.72,2.91-3.06.72-1.34,1.08-2.89,1.08-4.67s-.36-3.33-1.08-4.65Z"/><path class="cls-4" d="m116.17,77.18c-1.8-1.01-3.2-2.43-4.22-4.29-1.02-1.85-1.53-4-1.53-6.44s.52-4.54,1.57-6.4c1.05-1.85,2.48-3.27,4.29-4.26,1.81-.99,3.83-1.49,6.07-1.49s4.26.5,6.07,1.49c1.81.99,3.24,2.4,4.29,4.24,1.05,1.84,1.57,3.98,1.57,6.42s-.54,4.59-1.62,6.44c-1.08,1.85-2.53,3.28-4.37,4.29-1.84,1-3.88,1.51-6.12,1.51s-4.21-.5-6.01-1.51Zm9.97-2.93c1.23-.66,2.23-1.65,2.99-2.97.76-1.32,1.14-2.93,1.14-4.82s-.37-3.5-1.12-4.82c-.75-1.32-1.72-2.3-2.93-2.95-1.2-.65-2.51-.97-3.92-.97s-2.75.32-3.94.97-2.15,1.63-2.86,2.95c-.72,1.32-1.08,2.93-1.08,4.82s.35,3.55,1.06,4.87c.7,1.32,1.64,2.3,2.82,2.95s2.47.97,3.88.97,2.73-.33,3.96-.99Z"/><path class="cls-4" d="m157.47,64.18c.9.72,1.62,1.61,2.15,2.67.53,1.06.8,2.2.8,3.4,0,1.52-.39,2.89-1.16,4.11-.78,1.22-1.9,2.18-3.38,2.89-1.48.7-3.22,1.06-5.23,1.06h-11.2v-30.02h10.77c2.04,0,3.77.34,5.21,1.01,1.43.67,2.51,1.59,3.23,2.73.72,1.15,1.08,2.44,1.08,3.88,0,1.78-.48,3.25-1.44,4.41-.96,1.16-2.23,2-3.81,2.52,1.09.17,2.09.62,2.99,1.34Zm-14.1-2.93h6.59c1.84,0,3.26-.43,4.26-1.29,1-.86,1.51-2.05,1.51-3.57s-.5-2.71-1.51-3.57c-1.01-.86-2.45-1.29-4.35-1.29h-6.5v9.73Zm11.5,12.45c1.09-.92,1.64-2.2,1.64-3.83s-.58-2.98-1.72-3.94c-1.15-.96-2.69-1.44-4.61-1.44h-6.8v10.59h6.93c1.95,0,3.47-.46,4.57-1.38Z"/><path class="cls-4" d="m187.25,67.97h-18.86c.14,2.33.94,4.14,2.39,5.45,1.45,1.31,3.21,1.96,5.28,1.96,1.69,0,3.11-.39,4.24-1.18,1.13-.79,1.93-1.84,2.39-3.16h4.22c-.63,2.27-1.89,4.11-3.79,5.53-1.89,1.42-4.25,2.13-7.06,2.13-2.24,0-4.24-.5-6.01-1.51-1.77-1.01-3.15-2.43-4.16-4.29-1.01-1.85-1.51-4-1.51-6.44s.49-4.58,1.46-6.42c.97-1.84,2.35-3.25,4.11-4.24,1.77-.99,3.8-1.49,6.09-1.49s4.22.49,5.94,1.46,3.05,2.32,3.98,4.03c.93,1.71,1.4,3.64,1.4,5.79,0,.75-.04,1.54-.13,2.37Zm-4.91-7.04c-.66-1.08-1.56-1.9-2.69-2.45-1.14-.56-2.39-.84-3.77-.84-1.98,0-3.67.63-5.06,1.9-1.39,1.26-2.19,3.01-2.39,5.25h14.9c0-1.49-.33-2.78-.99-3.85Z"/><path class="cls-4" d="m197.33,57.93v13.91c0,1.15.24,1.96.73,2.43.49.47,1.34.71,2.54.71h2.89v3.32h-3.53c-2.18,0-3.82-.5-4.91-1.51-1.09-1-1.64-2.66-1.64-4.95v-13.91h-3.06v-3.23h3.06v-5.94h3.92v5.94h6.16v3.23h-6.16Z"/><path class="cls-4" d="m213,57.93v13.91c0,1.15.24,1.96.73,2.43.49.47,1.34.71,2.54.71h2.89v3.32h-3.53c-2.18,0-3.82-.5-4.91-1.51-1.09-1-1.64-2.66-1.64-4.95v-13.91h-3.06v-3.23h3.06v-5.94h3.92v5.94h6.16v3.23h-6.16Z"/><path class="cls-4" d="m245.3,67.97h-18.86c.14,2.33.94,4.14,2.39,5.45,1.45,1.31,3.21,1.96,5.28,1.96,1.69,0,3.11-.39,4.24-1.18,1.13-.79,1.93-1.84,2.39-3.16h4.22c-.63,2.27-1.89,4.11-3.79,5.53-1.89,1.42-4.25,2.13-7.06,2.13-2.24,0-4.24-.5-6.01-1.51-1.77-1.01-3.15-2.43-4.16-4.29-1.01-1.85-1.51-4-1.51-6.44s.49-4.58,1.46-6.42c.97-1.84,2.35-3.25,4.11-4.24,1.77-.99,3.8-1.49,6.09-1.49s4.22.49,5.94,1.46c1.72.98,3.05,2.32,3.98,4.03.93,1.71,1.4,3.64,1.4,5.79,0,.75-.04,1.54-.13,2.37Zm-4.91-7.04c-.66-1.08-1.56-1.9-2.69-2.45-1.14-.56-2.39-.84-3.77-.84-1.98,0-3.67.63-5.06,1.9-1.39,1.26-2.19,3.01-2.39,5.25h14.9c0-1.49-.33-2.78-.99-3.85Z"/><path class="cls-4" d="m257.47,55.39c1.28-.75,2.84-1.12,4.67-1.12v4.05h-1.03c-4.39,0-6.59,2.38-6.59,7.15v12.83h-3.92v-23.6h3.92v3.83c.69-1.35,1.67-2.4,2.95-3.14Z"/><path class="cls-1" d="m47.4,80.91c.53.88.85,1.89.85,2.99,0,3.24-2.62,5.86-5.86,5.86s-5.57-2.38-5.81-5.39l-11.27,3.6c1.84,7.74,8.78,13.5,17.08,13.5,9.71,0,17.57-7.87,17.57-17.57,0-2.34-.47-4.56-1.3-6.6l-11.26,3.6Z"/><path class="cls-2" d="m56.38,50.7c0,2.88-2.33,5.21-5.21,5.21s-5.21-2.33-5.21-5.21,2.33-5.21,5.21-5.21c.21,0,.41.04.62.06-2.72-1.73-5.94-2.75-9.41-2.75-9.71,0-17.57,7.87-17.57,17.57,0,4.53,1.73,8.64,4.54,11.76,3.22,3.56,7.86,5.81,13.03,5.81s9.82-2.25,13.03-5.81c2.81-3.12,4.54-7.23,4.54-11.76,0-4.05-1.38-7.77-3.69-10.74.07.34.11.7.11,1.06Zm-14,15.54c-3.24,0-5.86-2.62-5.86-5.86s2.62-5.86,5.86-5.86,5.86,2.62,5.86,5.86-2.62,5.86-5.86,5.86Z"/><path class="cls-3" d="m66.66,25.85c-5.39-3.35-12.48-1.69-15.83,3.7-2.34,3.77-2.23,8.35-.12,11.92.41.69.9,1.34,1.45,1.95,0,0,0,0,0,0,.61.6.78,1.5.48,2.31-.04.1-.07.21-.13.31-.02.03-.02.06-.04.09-.39.62-1.04.98-1.72,1.03,0,0,0,0,0,0-1.01.14-1.96.71-2.54,1.65,0,.01-.02.03-.02.04-1,1.66-.48,3.82,1.17,4.85,1.65,1.03,3.82.53,4.86-1.1,0-.01.02-.03.03-.04.58-.93.67-2.03.35-3,0,0,0,0,0,0-.23-.55-.22-1.19.04-1.76.04-.08.07-.17.12-.25.08-.12.18-.21.28-.31.59-.63,1.48-.88,2.29-.6,0,0,0,0,0,0,.61.18,1.22.31,1.84.38,4.31.54,8.75-1.4,11.19-5.33,3.35-5.39,1.69-12.48-3.7-15.83Zm-1.25,12.9c-1.67,2.69-5.22,3.52-7.91,1.85-2.69-1.67-3.52-5.22-1.85-7.91,1.67-2.7,5.22-3.52,7.91-1.85,2.7,1.67,3.52,5.22,1.85,7.91Z"/></svg>