<?xml version="1.0" encoding="UTF-8"?><svg id="Layer_1" xmlns="http://www.w3.org/2000/svg" viewBox="0 0 232.45 185.84"><defs><style>.cls-1{stroke-width:0px;}</style></defs><path class="cls-1" d="m41.52,126.52c1.55.9,2.71,2.03,3.46,3.4v-4.36h4.01v24.4c0,2.18-.46,4.12-1.39,5.82-.93,1.7-2.26,3.03-3.99,3.99-1.73.96-3.74,1.44-6.03,1.44-3.14,0-5.75-.74-7.84-2.22s-3.33-3.5-3.7-6.06h3.92c.44,1.45,1.33,2.62,2.7,3.51,1.37.89,3.01,1.33,4.92,1.33,2.18,0,3.96-.68,5.34-2.05,1.38-1.37,2.07-3.28,2.07-5.75v-5.01c-.79,1.39-1.95,2.56-3.49,3.49s-3.34,1.39-5.4,1.39-4.05-.52-5.77-1.57c-1.73-1.05-3.09-2.51-4.07-4.4-.99-1.89-1.48-4.04-1.48-6.45s.49-4.58,1.48-6.43c.99-1.84,2.34-3.27,4.07-4.29,1.73-1.02,3.65-1.52,5.77-1.52s3.87.45,5.42,1.35Zm2.37,6.23c-.73-1.34-1.71-2.36-2.94-3.07-1.24-.71-2.59-1.07-4.07-1.07s-2.83.35-4.05,1.05c-1.22.7-2.19,1.71-2.92,3.05-.73,1.34-1.09,2.9-1.09,4.71s.36,3.42,1.09,4.77c.73,1.35,1.7,2.38,2.92,3.09,1.22.71,2.57,1.07,4.05,1.07s2.84-.35,4.07-1.07c1.23-.71,2.21-1.74,2.94-3.09.73-1.35,1.09-2.93,1.09-4.73s-.36-3.37-1.09-4.7Z"/><path class="cls-1" d="m60.03,148.3c-1.82-1.02-3.24-2.46-4.27-4.34-1.03-1.87-1.55-4.04-1.55-6.51s.53-4.6,1.59-6.47c1.06-1.87,2.5-3.31,4.34-4.31,1.83-1,3.88-1.5,6.14-1.5s4.31.5,6.14,1.5c1.83,1,3.28,2.43,4.34,4.29,1.06,1.86,1.59,4.02,1.59,6.49s-.54,4.64-1.63,6.51c-1.09,1.87-2.56,3.32-4.42,4.34-1.86,1.02-3.92,1.52-6.19,1.52s-4.26-.51-6.08-1.52Zm10.08-2.96c1.25-.67,2.26-1.67,3.03-3.01.77-1.34,1.15-2.96,1.15-4.88s-.38-3.54-1.13-4.88c-.75-1.34-1.74-2.33-2.96-2.98-1.22-.65-2.54-.98-3.96-.98s-2.78.33-3.99.98-2.17,1.65-2.9,2.98c-.73,1.34-1.09,2.96-1.09,4.88s.36,3.59,1.07,4.92c.71,1.34,1.66,2.33,2.85,2.98s2.5.98,3.92.98,2.76-.33,4.01-1Z"/><path class="cls-1" d="m101.81,135.15c.91.73,1.64,1.63,2.18,2.7.54,1.08.81,2.22.81,3.44,0,1.54-.39,2.93-1.18,4.16-.79,1.23-1.93,2.21-3.42,2.92-1.5.71-3.26,1.07-5.29,1.07h-11.33v-30.36h10.89c2.06,0,3.82.34,5.27,1.02,1.45.68,2.54,1.6,3.27,2.77.73,1.16,1.09,2.47,1.09,3.92,0,1.8-.49,3.29-1.46,4.46-.97,1.18-2.26,2.03-3.86,2.55,1.1.17,2.11.62,3.03,1.35Zm-14.27-2.96h6.66c1.86,0,3.3-.44,4.31-1.31,1.02-.87,1.52-2.08,1.52-3.62s-.51-2.74-1.52-3.62c-1.02-.87-2.48-1.31-4.4-1.31h-6.58v9.85Zm11.63,12.59c1.1-.93,1.66-2.22,1.66-3.88s-.58-3.01-1.74-3.99c-1.16-.97-2.72-1.46-4.66-1.46h-6.88v10.72h7.01c1.97,0,3.51-.46,4.62-1.39Z"/><path class="cls-1" d="m131.93,138.98h-19.08c.15,2.35.95,4.19,2.42,5.51,1.47,1.32,3.24,1.98,5.34,1.98,1.71,0,3.14-.4,4.29-1.2,1.15-.8,1.95-1.87,2.42-3.2h4.27c-.64,2.29-1.92,4.16-3.83,5.6-1.92,1.44-4.3,2.16-7.14,2.16-2.27,0-4.29-.51-6.08-1.52-1.79-1.02-3.19-2.46-4.2-4.34-1.02-1.87-1.52-4.04-1.52-6.51s.49-4.63,1.48-6.49c.99-1.86,2.37-3.29,4.16-4.29,1.79-1,3.84-1.5,6.16-1.5s4.27.49,6.01,1.48c1.74.99,3.08,2.35,4.03,4.07.94,1.73,1.42,3.68,1.42,5.86,0,.76-.04,1.55-.13,2.4Zm-4.97-7.12c-.67-1.09-1.58-1.92-2.72-2.48-1.15-.57-2.42-.85-3.81-.85-2.01,0-3.71.64-5.12,1.92-1.41,1.28-2.22,3.05-2.42,5.31h15.07c0-1.51-.33-2.81-1-3.9Z"/><path class="cls-1" d="m142.12,128.83v14.07c0,1.16.25,1.98.74,2.46.49.48,1.35.72,2.57.72h2.92v3.35h-3.57c-2.21,0-3.86-.51-4.97-1.52-1.1-1.02-1.66-2.69-1.66-5.01v-14.07h-3.09v-3.27h3.09v-6.01h3.96v6.01h6.23v3.27h-6.23Z"/><path class="cls-1" d="m157.98,128.83v14.07c0,1.16.25,1.98.74,2.46.49.48,1.35.72,2.57.72h2.92v3.35h-3.57c-2.21,0-3.86-.51-4.97-1.52-1.1-1.02-1.66-2.69-1.66-5.01v-14.07h-3.09v-3.27h3.09v-6.01h3.96v6.01h6.23v3.27h-6.23Z"/><path class="cls-1" d="m190.65,138.98h-19.08c.15,2.35.95,4.19,2.42,5.51,1.47,1.32,3.24,1.98,5.34,1.98,1.71,0,3.14-.4,4.29-1.2,1.15-.8,1.95-1.87,2.42-3.2h4.27c-.64,2.29-1.92,4.16-3.83,5.6-1.92,1.44-4.3,2.16-7.14,2.16-2.27,0-4.29-.51-6.08-1.52-1.79-1.02-3.19-2.46-4.2-4.34-1.02-1.87-1.52-4.04-1.52-6.51s.49-4.63,1.48-6.49c.99-1.86,2.37-3.29,4.16-4.29,1.79-1,3.84-1.5,6.16-1.5s4.27.49,6.01,1.48c1.74.99,3.08,2.35,4.03,4.07.94,1.73,1.42,3.68,1.42,5.86,0,.76-.04,1.55-.13,2.4Zm-4.97-7.12c-.67-1.09-1.58-1.92-2.72-2.48-1.15-.57-2.42-.85-3.81-.85-2.01,0-3.71.64-5.12,1.92-1.41,1.28-2.22,3.05-2.42,5.31h15.07c0-1.51-.33-2.81-1-3.9Z"/><path class="cls-1" d="m202.96,126.26c1.29-.76,2.87-1.13,4.73-1.13v4.09h-1.05c-4.44,0-6.66,2.41-6.66,7.23v12.98h-3.96v-23.87h3.96v3.88c.7-1.36,1.69-2.42,2.98-3.18Z"/><path class="cls-1" d="m115.16,82.1c.53.89.86,1.92.86,3.03,0,3.27-2.65,5.93-5.93,5.93s-5.63-2.4-5.88-5.45l-11.4,3.65c1.86,7.83,8.88,13.65,17.28,13.65,9.82,0,17.78-7.96,17.78-17.78,0-2.36-.47-4.61-1.31-6.67l-11.39,3.64Z"/><path class="cls-1" d="m124.25,51.54c0,2.91-2.36,5.27-5.27,5.27s-5.27-2.36-5.27-5.27,2.36-5.27,5.27-5.27c.21,0,.42.04.63.06-2.75-1.75-6.01-2.78-9.52-2.78-9.82,0-17.78,7.96-17.78,17.78,0,4.58,1.75,8.74,4.59,11.89,3.25,3.6,7.95,5.88,13.18,5.88s9.93-2.28,13.18-5.88c2.85-3.15,4.59-7.31,4.59-11.89,0-4.1-1.4-7.86-3.73-10.87.07.35.11.71.11,1.07Zm-14.16,15.72c-3.27,0-5.93-2.65-5.93-5.93s2.65-5.93,5.93-5.93,5.93,2.65,5.93,5.93-2.65,5.93-5.93,5.93Z"/><path class="cls-1" d="m134.65,26.4c-5.46-3.39-12.62-1.71-16.01,3.74-2.37,3.81-2.26,8.45-.12,12.06.41.7.91,1.36,1.47,1.97,0,0,0,0,0,0,.61.61.79,1.52.49,2.33-.04.11-.07.21-.13.31-.02.03-.02.07-.04.1-.39.63-1.05.99-1.74,1.04,0,0,0,0,0,0-1.02.14-1.98.72-2.57,1.66,0,.01-.02.03-.02.04-1.01,1.68-.49,3.86,1.18,4.9,1.67,1.04,3.86.54,4.92-1.11,0-.01.02-.03.03-.04.59-.94.68-2.06.35-3.03,0,0,0,0,0,0-.24-.56-.22-1.2.04-1.78.04-.08.07-.17.12-.25.08-.12.19-.21.28-.32.59-.64,1.49-.89,2.32-.61,0,0,0,0,0,0,.61.18,1.24.31,1.86.39,4.36.54,8.85-1.41,11.32-5.39,3.39-5.46,1.71-12.62-3.74-16.01Zm-1.26,13.04c-1.69,2.73-5.28,3.56-8,1.87-2.73-1.69-3.56-5.28-1.87-8,1.69-2.73,5.28-3.56,8-1.87,2.73,1.69,3.56,5.28,1.87,8Z"/></svg>